<svg xmlns="http://www.w3.org/2000/svg" xmlns:xlink="http://www.w3.org/1999/xlink" width="632" height="632" viewBox="0 0 632 632">
  <defs>
    <clipPath id="clip-Avasharks_-_White_-_Logo">
      <rect width="632" height="632"/>
    </clipPath>
  </defs>
  <g id="Avasharks_-_White_-_Logo" data-name="Avasharks - White - Logo" clip-path="url(#clip-Avasharks_-_White_-_Logo)">
    <g id="Layer_1" transform="translate(-210.946 -247.87)">
      <g id="Group_5" data-name="Group 5">
        <g id="Group_3" data-name="Group 3">
          <path id="Path_19087" data-name="Path 19087" d="M420.83,606.06c-23.24,2.09-77.34,9.72-118.76,20.17l-28.63,80.18H449.01l26.25-85.62h93.13C530.41,609.03,480.61,600.67,420.83,606.06ZM658.35,265.87H435.89L316.53,592.11c42.84-34.71,97.1-70.22,147.21-92.22,0,0,72.29-100.37,31.05-160.64,0,0,126.21,45.83,155.02,162.29,0,0,38.86,9.26,89.77,29.5ZM763.36,608.56,653.7,661.97s-20.61-16.45-58.7-31.75l18.36,76.18H793.32Z" fill="#fff"/>
          <path id="Path_19088" data-name="Path 19088" d="M338.84,560.57C297.58,594.09,246,653.41,246,653.41c15.47-5.16,47.13-17.75,75.5-22.91m439-11L834,583.78c-30.95-28.37-87.66-60.94-116.05-72.21" fill="none" stroke="#fff" stroke-miterlimit="10" stroke-width="17"/>
        </g>
        <text id="AVASHARKS" transform="translate(219.946 839.944)" fill="#fff" font-size="94.595" font-family="Helvetica"><tspan x="0" y="0">AVASHARKS</tspan></text>
        <g id="Group_4" data-name="Group 4">
          <path id="Path_19089" data-name="Path 19089" d="M734.99,639.64c-3.47-5.36-7.89-9.14-12.49-12.77-.58-.45-1.15-.9-1.71-1.37s-1.19-.87-1.77-1.33c-1.19-.87-2.25-1.91-3.49-2.76-1.19-.91-2.36-1.86-3.6-2.75-1.27-.83-2.57-1.64-3.87-2.44a44.985,44.985,0,0,0-4.04-2.21c-1.37-.7-2.74-1.43-4.13-2.11l-4.26-1.91-2.14-.96-1.07-.48-1.1-.41c-2.93-1.1-5.84-2.31-8.82-3.33q-4.485-1.47-9-3.01l.16-.78c3.15.43,6.3.89,9.47,1.37l1.19.18,1.17.25,2.35.51,4.71,1.02,1.18.26,1.16.33,2.32.67,4.66,1.35c1.53.54,3.04,1.14,4.56,1.7a47.823,47.823,0,0,1,4.53,1.85c5.97,2.57,12.25,5.43,16.95,10.48a32.737,32.737,0,0,1,5.9,8.42c.35.8.68,1.61.99,2.41.29.82.49,1.68.71,2.51a14.244,14.244,0,0,1,.26,5.21Z" fill="#fff"/>
        </g>
      </g>
    </g>
  </g>
</svg>
