<svg xmlns="http://www.w3.org/2000/svg" xmlns:xlink="http://www.w3.org/1999/xlink" width="25" height="25" viewBox="0 0 25 25">
  <defs>
    <clipPath id="clip-Shark_Tooth">
      <rect width="25" height="25"/>
    </clipPath>
  </defs>
  <g id="Shark_Tooth" data-name="Shark Tooth" clip-path="url(#clip-Shark_Tooth)">
    <path id="Tooth-Black" d="M53.727,19.188H49.919a.6.6,0,0,1,0-1.2h2.848a26.325,26.325,0,0,1-5.139-15.8c0-.536.017-1.064.046-1.592a24.937,24.937,0,0,0-9.7,17.39h9.637a.6.6,0,0,1,0,1.2H37.153a.654.654,0,0,0-.653.653v1.022a.654.654,0,0,0,.653.653H53.727a.654.654,0,0,0,.653-.653V19.841A.654.654,0,0,0,53.727,19.188ZM42.762,10a1.4,1.4,0,0,1-.268.519,6.822,6.822,0,0,0-.507.926,7.677,7.677,0,0,0-.611,2.044l-.1.666a.538.538,0,0,1-.75.44.389.389,0,0,0-.042-.021c-.352-.23-.243-.591-.176-.947.046-.239.071-.482.109-.725a7.475,7.475,0,0,1,.67-2.144c.159-.327.339-.637.524-.951.138-.23.285-.511.582-.49a.617.617,0,0,1,.524.381A.468.468,0,0,1,42.762,10Z" transform="translate(-32.5 1.4)" fill="#fff"/>
  </g>
</svg>
